<svg width="169" height="54" viewBox="0 0 169 54" fill="none" xmlns="http://www.w3.org/2000/svg">
<g filter="url(#filter0_d_487_3508)">
<path d="M56.2434 32.3936C60.3797 32.3936 63.7329 29.0554 63.7329 24.9375C63.7329 20.8197 60.3797 17.4814 56.2434 17.4814C52.1071 17.4814 48.7539 20.8197 48.7539 24.9375C48.7539 29.0554 52.1071 32.3936 56.2434 32.3936Z" fill="#B0B0B0"/>
<path d="M83.6668 27.9372C83.375 28.2912 83.0651 28.5953 82.7232 28.8539C82.3859 29.1081 82.0303 29.3214 81.6656 29.4893C81.2964 29.6617 80.9181 29.7842 80.5352 29.8659C80.1477 29.9431 79.7648 29.9839 79.3819 29.9839C78.6297 29.9839 77.9232 29.8478 77.2622 29.58C76.6012 29.3077 76.0269 28.9402 75.5346 28.4682C75.0423 27.9962 74.6548 27.438 74.3631 26.7982C74.0759 26.1538 73.9346 25.464 73.9346 24.7243C73.9346 23.9982 74.0759 23.3175 74.3585 22.6776C74.6411 22.0423 75.0332 21.4886 75.5255 21.0166C76.0223 20.5447 76.6012 20.1726 77.2622 19.8957C77.9232 19.6234 78.6297 19.4873 79.3819 19.4873C80.2571 19.4873 81.0503 19.6643 81.7659 20.0183C82.4816 20.3722 83.0879 20.8442 83.5893 21.4341L82.2582 22.7865C81.8753 22.2737 81.4514 21.9016 80.9773 21.6792C80.5032 21.4568 79.9745 21.3434 79.391 21.3434C78.9078 21.3434 78.4565 21.4341 78.0326 21.6111C77.6132 21.7881 77.2394 22.0286 76.9249 22.3372C76.6058 22.6458 76.3596 23.0043 76.1773 23.4128C75.995 23.8212 75.9038 24.2568 75.9038 24.7243C75.9038 25.1962 75.995 25.6364 76.1773 26.0449C76.3596 26.4533 76.6058 26.8118 76.9249 27.1249C77.2394 27.438 77.6087 27.6831 78.0326 27.8601C78.452 28.0371 78.9078 28.1233 79.3864 28.1233C79.8468 28.1233 80.2753 28.0416 80.681 27.8737C81.0867 27.7013 81.4514 27.4789 81.7705 27.2021V26.2264H79.6873V24.5564H83.6668V27.9372Z" fill="black"/>
<path d="M91.9004 29.7934H85.1904V19.687H91.9004V21.3071H87.1232V23.7214H91.8366V25.3052H87.1232V28.087H91.9004V29.7934Z" fill="black"/>
<path d="M103.815 24.7333C103.815 25.4594 103.674 26.1447 103.392 26.7846C103.104 27.4244 102.721 27.9826 102.229 28.4546C101.737 28.9265 101.167 29.2987 100.515 29.5755C99.8633 29.8478 99.1705 29.9839 98.4365 29.9839C97.6981 29.9839 97.0052 29.8478 96.3488 29.5755C95.6924 29.2987 95.118 28.9265 94.6303 28.4546C94.138 27.9826 93.7505 27.429 93.4679 26.7891C93.1853 26.1538 93.0439 25.4685 93.0439 24.7333C93.0439 24.0027 93.1853 23.3129 93.4679 22.673C93.7505 22.0332 94.138 21.475 94.6303 21.003C95.118 20.5311 95.6924 20.1589 96.3488 19.8912C97.0052 19.6189 97.6981 19.4873 98.4365 19.4873C99.1705 19.4873 99.8633 19.6189 100.515 19.8912C101.167 20.1589 101.737 20.5356 102.229 21.0121C102.721 21.4886 103.104 22.0423 103.392 22.6776C103.674 23.3175 103.815 24.0027 103.815 24.7333ZM101.846 24.7333C101.846 24.2705 101.76 23.8348 101.577 23.4264C101.404 23.0179 101.158 22.6594 100.848 22.3508C100.538 22.0423 100.178 21.7972 99.7585 21.6157C99.3437 21.4341 98.9015 21.3434 98.4365 21.3434C97.9625 21.3434 97.5158 21.4341 97.1009 21.6157C96.6816 21.7972 96.3214 22.0423 96.0115 22.3508C95.7015 22.6594 95.4553 23.0179 95.2776 23.4264C95.0998 23.8348 95.0132 24.2705 95.0132 24.7333C95.0132 25.1917 95.0998 25.6228 95.2776 26.0403C95.4553 26.4487 95.7015 26.8118 96.0115 27.1204C96.3214 27.429 96.6816 27.674 97.1009 27.851C97.5158 28.0325 97.9625 28.1233 98.4365 28.1233C98.9015 28.1233 99.3437 28.0325 99.7585 27.851C100.178 27.674 100.538 27.429 100.848 27.1204C101.158 26.8118 101.404 26.4487 101.577 26.0403C101.76 25.6228 101.846 25.1917 101.846 24.7333Z" fill="black"/>
<path d="M113.953 29.7938H111.387L107.321 25.3192V29.7938H105.352V19.6738H107.321V24.1938L111.478 19.6738H113.817L109.226 24.6476L113.953 29.7938Z" fill="black"/>
<path d="M125.097 29.7938H122.937L121.993 27.7698H117.066L116.113 29.7938H113.952L118.757 19.6738H120.293L125.097 29.7938ZM121.218 26.1406L119.532 22.4965L117.818 26.1406H121.218Z" fill="black"/>
<path d="M131.435 21.4342H128.627V29.7934H126.635V21.4342H123.827V19.687H131.435V21.4342Z" fill="black"/>
<path d="M141.308 29.7938H139.147L138.208 27.7698H133.276L132.323 29.7938H130.167L134.967 19.6738H136.503L141.308 29.7938ZM137.433 26.1406L135.742 22.4965L134.028 26.1406H137.433Z" fill="black"/>
<path d="M149.198 29.7934H142.324V19.687H144.33V27.8964H149.198V29.7934Z" fill="black"/>
<path d="M152.312 29.7934H150.343V19.687H152.312V29.7934Z" fill="black"/>
<path d="M161 27.1385C161 27.5197 160.918 27.8782 160.754 28.2185C160.586 28.5589 160.358 28.863 160.061 29.1262C159.765 29.3848 159.414 29.5936 159.004 29.7479C158.598 29.9067 158.151 29.9839 157.659 29.9839C157.217 29.9839 156.825 29.9566 156.469 29.9067C156.118 29.8568 155.79 29.7796 155.48 29.6662C155.17 29.5573 154.874 29.4166 154.591 29.2442C154.309 29.0717 154.012 28.863 153.707 28.6179L155.106 27.2156C155.512 27.5514 155.909 27.7874 156.301 27.9281C156.688 28.0688 157.112 28.1369 157.573 28.1369C157.755 28.1369 157.933 28.1096 158.097 28.0552C158.261 28.0007 158.407 27.9281 158.53 27.8328C158.653 27.742 158.749 27.6331 158.822 27.5061C158.895 27.379 158.931 27.2383 158.931 27.0886C158.931 26.9252 158.899 26.7845 158.84 26.6574C158.781 26.5304 158.676 26.4078 158.525 26.2899C158.37 26.1719 158.161 26.0539 157.887 25.9313C157.618 25.8088 157.272 25.6727 156.848 25.5184C156.474 25.3822 156.114 25.2325 155.772 25.0555C155.43 24.883 155.129 24.6743 154.869 24.4338C154.614 24.1887 154.404 23.8983 154.249 23.5715C154.09 23.2403 154.012 22.8545 154.012 22.4052C154.012 21.9787 154.099 21.5793 154.272 21.2208C154.445 20.8578 154.683 20.5446 154.983 20.2905C155.284 20.0318 155.635 19.8321 156.041 19.6869C156.442 19.5462 156.875 19.4736 157.34 19.4736C158.12 19.4736 158.776 19.5735 159.309 19.7777C159.843 19.9774 160.321 20.2723 160.732 20.6626L159.359 22.0422C159.109 21.7971 158.822 21.6065 158.512 21.4795C158.197 21.3479 157.828 21.2798 157.404 21.2798C157.208 21.2798 157.03 21.3116 156.866 21.3706C156.702 21.4296 156.556 21.5067 156.438 21.6065C156.319 21.7018 156.228 21.8153 156.155 21.9469C156.082 22.0785 156.045 22.2146 156.045 22.3553C156.045 22.5187 156.077 22.6639 156.146 22.7955C156.214 22.9226 156.328 23.0497 156.492 23.1722C156.652 23.2947 156.866 23.4172 157.13 23.5398C157.399 23.6623 157.732 23.7939 158.129 23.9391C158.639 24.1161 159.072 24.3067 159.437 24.52C159.802 24.7287 160.098 24.9647 160.326 25.2143C160.558 25.4685 160.727 25.7544 160.836 26.0675C160.946 26.3852 161 26.7437 161 27.1385Z" fill="black"/>
<path d="M23.5003 45.9002C35.9269 45.9002 46.0007 35.8713 46.0007 23.5001C46.0007 11.1289 35.9269 1.1001 23.5003 1.1001C11.0737 1.1001 1 11.1289 1 23.5001C1 35.8713 11.0737 45.9002 23.5003 45.9002Z" fill="#4B96CC"/>
</g>
<defs>
<filter id="filter0_d_487_3508" x="0.120691" y="0.220788" width="168.794" height="53.5934" filterUnits="userSpaceOnUse" color-interpolation-filters="sRGB">
<feFlood flood-opacity="0" result="BackgroundImageFix"/>
<feColorMatrix in="SourceAlpha" type="matrix" values="0 0 0 0 0 0 0 0 0 0 0 0 0 0 0 0 0 0 127 0" result="hardAlpha"/>
<feOffset dx="3.51724" dy="3.51724"/>
<feGaussianBlur stdDeviation="2.19827"/>
<feColorMatrix type="matrix" values="0 0 0 0 1 0 0 0 0 1 0 0 0 0 1 0 0 0 0.25 0"/>
<feBlend mode="normal" in2="BackgroundImageFix" result="effect1_dropShadow_487_3508"/>
<feBlend mode="normal" in="SourceGraphic" in2="effect1_dropShadow_487_3508" result="shape"/>
</filter>
</defs>
</svg>
